<?xml version="1.0" encoding="utf-8"?>
<svg version="1.1" xmlns="http://www.w3.org/2000/svg" xmlns:xlink="http://www.w3.org/1999/xlink" x="0px" y="0px" viewBox="0 0 1024 1024" enable-background="new 0 0 1024 1024" xml:space="preserve">
<g transform="translate(0 128)">
<path fill="#000000" d="m283.49 353.81c-0.09 0-0.21 0.02-0.27 0.03-0.06 0.02-0.16 0.06-0.23 0.09-0.08 0.04-0.18 0.11-0.27 0.2s-0.16 0.18-0.2 0.27c-0.03 0.07-0.07 0.18-0.09 0.24-0.02 0.1-0.03 0.43-0.03 2.47 0 2.03 0.01 2.36 0.03 2.46 0.02 0.06 0.06 0.17 0.09 0.24 0.04 0.09 0.11 0.18 0.2 0.27s0.19 0.16 0.27 0.2c0.07 0.03 0.18 0.07 0.24 0.09s0.18 0.03 0.27 0.03c0.08 0 0.2-0.01 0.26-0.03 0.07-0.02 0.17-0.06 0.24-0.09 0.09-0.04 0.18-0.11 0.27-0.2s0.16-0.18 0.2-0.27c0.03-0.07 0.08-0.18 0.09-0.24 0.03-0.1 0.03-0.43 0.03-2.46 0-2.04 0-2.37-0.03-2.47-0.01-0.06-0.06-0.17-0.09-0.24-0.04-0.09-0.11-0.18-0.2-0.27s-0.18-0.16-0.27-0.2c-0.07-0.03-0.17-0.07-0.24-0.09-0.06-0.02-0.19-0.03-0.27-0.03zm-18.67 7.73c-0.06 0-0.16 0.01-0.23 0.02-0.06 0.02-0.18 0.06-0.25 0.1-0.1 0.04-0.18 0.11-0.28 0.21s-0.17 0.19-0.21 0.28c-0.04 0.07-0.08 0.19-0.1 0.26-0.01 0.07-0.03 0.17-0.03 0.22s0.01 0.14 0.03 0.21c0.01 0.06 0.05 0.19 0.1 0.28l0.07 0.17 1.67 1.66c1.27 1.28 1.69 1.68 1.78 1.74 0.07 0.04 0.17 0.09 0.24 0.11s0.19 0.04 0.26 0.05c0.08 0 0.18 0 0.27-0.02s0.22-0.06 0.3-0.1c0.1-0.05 0.18-0.12 0.27-0.2 0.09-0.09 0.15-0.18 0.2-0.28 0.05-0.08 0.09-0.22 0.11-0.31 0.03-0.14 0.03-0.19 0.01-0.32-0.01-0.08-0.04-0.19-0.06-0.25-0.03-0.07-0.08-0.17-0.12-0.23-0.05-0.07-0.75-0.79-1.73-1.76l-1.65-1.64-0.14-0.07c-0.07-0.04-0.2-0.09-0.27-0.11-0.07-0.01-0.18-0.02-0.24-0.02zm37.35 0c-0.06 0-0.16 0.01-0.23 0.03-0.07 0.01-0.19 0.06-0.27 0.1l-0.15 0.07-1.68 1.68c-1.43 1.43-1.69 1.7-1.75 1.8-0.03 0.07-0.07 0.17-0.09 0.24s-0.04 0.18-0.04 0.29 0.02 0.22 0.04 0.29 0.06 0.17 0.1 0.24c0.03 0.06 0.11 0.17 0.19 0.25s0.17 0.15 0.27 0.2c0.08 0.04 0.21 0.08 0.29 0.1 0.1 0.02 0.19 0.03 0.28 0.02 0.07-0.01 0.18-0.03 0.25-0.05s0.18-0.07 0.25-0.11c0.09-0.06 0.5-0.46 1.78-1.74l1.66-1.66 0.08-0.17c0.04-0.09 0.09-0.22 0.1-0.28 0.01-0.07 0.02-0.16 0.02-0.21s-0.01-0.15-0.03-0.22c-0.01-0.07-0.05-0.19-0.09-0.26-0.04-0.09-0.11-0.18-0.21-0.28s-0.19-0.17-0.28-0.21c-0.07-0.04-0.19-0.08-0.26-0.1-0.07-0.01-0.18-0.02-0.23-0.02zm370.15 1.87c-2.65 0-4.78 2.08-4.78 4.72 0 2.6 2.19 4.78 4.78 4.78 2.65 0 4.84-2.13 4.84-4.78 0-2.64-2.19-4.72-4.84-4.72zm-333.85 1.1v38.42h20.84c7.29 0 11.17-4.61 11.17-10.37 0-4.83-3.3-8.79-7.37-9.44 3.61-0.77 6.64-3.99 6.64-8.83 0-5.1-3.76-9.78-11.05-9.78h-20.23zm69.37 0v38.4h8.12v-2.65c2.12 2.13 4.83 3.34 7.77 3.34 7.02 0 12.32-5.3 12.32-14.63 0-9.03-5.24-14.56-12.38-14.56-2.88 0-5.64 1.09-7.71 3.28v-13.18h-8.12zm33.95 0v38.4h8.12v-2.65c2.13 2.13 4.83 3.34 7.77 3.34 7.02 0 12.32-5.3 12.32-14.63 0-9.03-5.24-14.56-12.38-14.56-2.88 0-5.64 1.09-7.71 3.28v-13.18h-8.12zm275 0v38.4h8.11v-18.43c0.69-0.86 2.65-2.76 5.53-2.76 3.11 0 4.37 1.21 4.37 4.26v16.93h8.18v-19.75c0-5.41-2.99-8.75-9.1-8.75-3.91 0-7.02 1.67-8.98 3.45v-13.35h-8.11zm-126.71 0.06v38.37h9.1v-38.37h-9.1zm-306.64 2.45c-0.31 0-0.67 0-0.81 0.01s-0.4 0.03-0.57 0.05-0.46 0.06-0.64 0.08c-0.19 0.03-0.45 0.07-0.59 0.1-0.14 0.02-0.39 0.08-0.56 0.12-0.16 0.04-0.44 0.11-0.61 0.15-0.18 0.05-0.49 0.15-0.7 0.22-0.2 0.07-0.52 0.18-0.7 0.25-0.18 0.08-0.5 0.21-0.71 0.31-0.21 0.09-0.54 0.25-0.73 0.36-0.19 0.1-0.48 0.27-0.65 0.36-0.16 0.1-0.4 0.25-0.53 0.34-0.14 0.09-0.35 0.23-0.47 0.32-0.13 0.09-0.35 0.26-0.49 0.37s-0.35 0.28-0.46 0.38c-0.12 0.1-0.33 0.28-0.47 0.42-0.14 0.13-0.36 0.34-0.49 0.48-0.13 0.13-0.31 0.32-0.4 0.43-0.09 0.1-0.24 0.26-0.32 0.37-0.09 0.1-0.24 0.28-0.33 0.4s-0.24 0.31-0.33 0.44c-0.09 0.12-0.23 0.33-0.32 0.47-0.09 0.13-0.24 0.37-0.34 0.53-0.1 0.17-0.24 0.42-0.32 0.56-0.08 0.15-0.21 0.41-0.29 0.58-0.09 0.18-0.22 0.47-0.29 0.65-0.08 0.17-0.2 0.48-0.27 0.67s-0.16 0.47-0.21 0.64c-0.05 0.16-0.14 0.47-0.2 0.7s-0.13 0.54-0.16 0.7c-0.03 0.17-0.08 0.44-0.11 0.62s-0.06 0.4-0.07 0.49-0.03 0.31-0.05 0.49-0.04 0.62-0.04 0.98c-0.01 0.43-0.01 0.8 0.01 1.04 0.01 0.21 0.04 0.5 0.05 0.66 0.02 0.15 0.05 0.43 0.08 0.61 0.03 0.19 0.07 0.47 0.11 0.64 0.03 0.17 0.09 0.42 0.12 0.58 0.04 0.15 0.09 0.35 0.12 0.46 0.03 0.1 0.09 0.31 0.14 0.48 0.05 0.16 0.14 0.43 0.2 0.6 0.07 0.18 0.18 0.46 0.25 0.62 0.06 0.17 0.19 0.44 0.27 0.62 0.08 0.17 0.22 0.46 0.32 0.63 0.09 0.18 0.24 0.45 0.34 0.62 0.1 0.16 0.27 0.43 0.38 0.6s0.32 0.46 0.47 0.65c0.14 0.19 0.35 0.46 0.47 0.6 0.11 0.14 0.3 0.35 0.41 0.48 0.12 0.12 0.32 0.34 0.46 0.47 0.13 0.13 0.35 0.34 0.47 0.46 0.13 0.11 0.34 0.3 0.48 0.41 0.14 0.12 0.39 0.32 0.56 0.44 0.16 0.13 0.43 0.32 0.59 0.42l0.28 0.2v1.74c0 1.03 0.01 1.85 0.02 2.01 0.01 0.15 0.05 0.4 0.07 0.55 0.03 0.15 0.08 0.39 0.12 0.52 0.03 0.14 0.1 0.34 0.13 0.44 0.04 0.11 0.15 0.34 0.24 0.53 0.09 0.18 0.24 0.45 0.34 0.59 0.1 0.15 0.23 0.34 0.31 0.43 0.07 0.1 0.25 0.29 0.39 0.43s0.34 0.33 0.46 0.42c0.11 0.09 0.3 0.23 0.43 0.31 0.12 0.08 0.35 0.21 0.5 0.29 0.15 0.07 0.37 0.17 0.49 0.22 0.13 0.05 0.33 0.12 0.46 0.16s0.33 0.09 0.43 0.11c0.11 0.02 0.3 0.05 0.42 0.07 0.2 0.03 0.49 0.04 2.68 0.04 1.65 0.01 2.56 0 2.76-0.01 0.17-0.01 0.42-0.04 0.55-0.06s0.36-0.07 0.51-0.11c0.14-0.04 0.38-0.11 0.52-0.17 0.15-0.05 0.4-0.16 0.56-0.24 0.15-0.08 0.4-0.22 0.54-0.32 0.15-0.1 0.34-0.23 0.43-0.31 0.09-0.07 0.28-0.24 0.42-0.38s0.33-0.35 0.42-0.47c0.09-0.11 0.23-0.31 0.32-0.43 0.08-0.13 0.22-0.38 0.31-0.54 0.08-0.17 0.19-0.42 0.24-0.56s0.12-0.37 0.16-0.52c0.04-0.14 0.09-0.37 0.11-0.5s0.04-0.35 0.05-0.5 0.03-1.01 0.03-2v-1.74l0.24-0.17c0.14-0.09 0.41-0.28 0.59-0.42 0.19-0.14 0.44-0.34 0.55-0.43 0.12-0.09 0.31-0.26 0.43-0.37s0.37-0.34 0.55-0.52 0.43-0.44 0.55-0.58c0.13-0.14 0.31-0.36 0.42-0.48 0.11-0.13 0.29-0.37 0.41-0.53 0.12-0.17 0.32-0.44 0.43-0.61s0.29-0.44 0.39-0.61 0.26-0.45 0.35-0.63c0.09-0.17 0.24-0.46 0.32-0.63 0.08-0.18 0.2-0.45 0.27-0.62 0.07-0.16 0.18-0.44 0.24-0.62 0.06-0.17 0.16-0.44 0.21-0.6 0.05-0.17 0.11-0.38 0.14-0.48 0.02-0.11 0.08-0.31 0.11-0.46 0.04-0.16 0.1-0.42 0.13-0.58 0.03-0.17 0.08-0.45 0.11-0.64 0.02-0.18 0.06-0.46 0.07-0.61 0.02-0.16 0.04-0.46 0.06-0.68 0.01-0.25 0.02-0.63 0.01-1.04-0.01-0.35-0.03-0.78-0.04-0.96-0.02-0.18-0.05-0.44-0.06-0.57-0.02-0.13-0.06-0.39-0.09-0.58-0.03-0.18-0.09-0.48-0.13-0.65-0.03-0.18-0.11-0.49-0.16-0.7-0.06-0.2-0.16-0.55-0.24-0.77-0.07-0.22-0.19-0.55-0.26-0.73-0.08-0.18-0.21-0.51-0.31-0.71-0.09-0.21-0.26-0.55-0.36-0.74s-0.27-0.48-0.36-0.65c-0.1-0.16-0.27-0.43-0.39-0.6-0.11-0.17-0.27-0.4-0.35-0.51s-0.23-0.3-0.33-0.43-0.26-0.32-0.35-0.43c-0.1-0.11-0.28-0.31-0.41-0.45s-0.36-0.38-0.52-0.52c-0.15-0.15-0.4-0.38-0.54-0.51-0.15-0.13-0.4-0.33-0.56-0.46s-0.41-0.32-0.56-0.42c-0.14-0.1-0.39-0.27-0.54-0.36-0.15-0.1-0.4-0.26-0.56-0.35-0.17-0.1-0.49-0.27-0.73-0.39-0.23-0.12-0.52-0.26-0.64-0.31-0.12-0.06-0.36-0.15-0.52-0.22-0.17-0.07-0.45-0.18-0.63-0.23-0.17-0.06-0.45-0.15-0.61-0.2s-0.44-0.12-0.61-0.16c-0.17-0.05-0.42-0.1-0.56-0.13-0.13-0.03-0.37-0.07-0.53-0.1-0.17-0.03-0.41-0.06-0.54-0.08-0.14-0.02-0.34-0.04-0.45-0.05-0.12-0.01-0.35-0.03-0.53-0.04s-0.57-0.02-0.88-0.01zm469.88 0.54v7.2h-4.61v7.19h4.61v14.1c0 4.96 2.76 7.6 7.89 7.6 3.05 0 5.29-0.8 6.79-2.3l-1.79-6.33s-0.63 0.57-0.97 0.8c-0.41 0.23-1.04 0.58-2.08 0.58-1.26 0-1.72-1.15-1.72-2.24v-12.21h4.83v-7.19h-4.78v-7.2h-8.17zm-470.27 1.65h0.61c0.27 0.01 0.61 0.02 0.76 0.03 0.14 0.01 0.41 0.04 0.58 0.06 0.18 0.02 0.49 0.07 0.69 0.11 0.2 0.03 0.54 0.11 0.76 0.17 0.22 0.05 0.61 0.16 0.86 0.25 0.26 0.08 0.6 0.21 0.77 0.28 0.18 0.07 0.52 0.23 0.77 0.35 0.25 0.13 0.57 0.3 0.72 0.39s0.41 0.25 0.58 0.36 0.42 0.29 0.57 0.4c0.16 0.11 0.39 0.29 0.51 0.4 0.13 0.11 0.35 0.3 0.48 0.42 0.14 0.13 0.35 0.33 0.46 0.45 0.12 0.13 0.29 0.3 0.37 0.4 0.09 0.1 0.24 0.27 0.33 0.38s0.25 0.33 0.36 0.47c0.11 0.15 0.28 0.39 0.39 0.55 0.1 0.16 0.25 0.41 0.34 0.56s0.24 0.43 0.34 0.63 0.24 0.49 0.31 0.64c0.06 0.15 0.16 0.39 0.21 0.53 0.06 0.14 0.14 0.4 0.2 0.57 0.05 0.17 0.15 0.49 0.2 0.72 0.06 0.23 0.14 0.58 0.18 0.79 0.04 0.2 0.08 0.51 0.1 0.68 0.03 0.18 0.05 0.46 0.07 0.62 0.01 0.16 0.02 0.57 0.02 0.91 0 0.41-0.01 0.74-0.03 0.98-0.02 0.2-0.06 0.51-0.08 0.69-0.03 0.18-0.08 0.47-0.11 0.64-0.03 0.16-0.1 0.45-0.15 0.63-0.04 0.19-0.12 0.47-0.17 0.63s-0.14 0.41-0.19 0.55c-0.06 0.15-0.15 0.4-0.22 0.55-0.06 0.16-0.21 0.48-0.33 0.71s-0.3 0.56-0.4 0.74c-0.11 0.18-0.28 0.45-0.37 0.59-0.1 0.15-0.28 0.39-0.39 0.54s-0.29 0.38-0.41 0.51c-0.11 0.14-0.32 0.37-0.46 0.53l-0.48 0.48c-0.12 0.11-0.31 0.28-0.42 0.37-0.11 0.1-0.29 0.25-0.4 0.34-0.11 0.08-0.3 0.23-0.43 0.32s-0.3 0.21-0.38 0.27c-0.08 0.05-0.28 0.17-0.44 0.27s-0.34 0.22-0.39 0.27-0.13 0.14-0.16 0.2c-0.04 0.05-0.09 0.16-0.12 0.24l-0.06 0.15-0.01 2.31-0.01 2.32-0.04 0.2c-0.03 0.1-0.08 0.28-0.11 0.4-0.04 0.11-0.11 0.29-0.17 0.4-0.05 0.11-0.14 0.27-0.2 0.36-0.07 0.09-0.17 0.24-0.24 0.32s-0.19 0.21-0.27 0.28c-0.07 0.07-0.2 0.17-0.27 0.23-0.08 0.06-0.22 0.15-0.31 0.21-0.1 0.05-0.25 0.13-0.35 0.17-0.09 0.04-0.24 0.1-0.33 0.13s-0.25 0.07-0.36 0.09l-0.2 0.05h-5.24l-0.21-0.05c-0.12-0.02-0.31-0.07-0.42-0.11-0.12-0.04-0.3-0.11-0.42-0.17s-0.28-0.15-0.37-0.21c-0.08-0.06-0.22-0.16-0.3-0.23s-0.21-0.19-0.28-0.26c-0.07-0.08-0.17-0.2-0.23-0.28s-0.15-0.22-0.2-0.31c-0.06-0.09-0.14-0.25-0.18-0.34-0.04-0.1-0.1-0.25-0.13-0.34-0.03-0.08-0.07-0.24-0.09-0.35l-0.05-0.19-0.01-2.32-0.01-2.31-0.05-0.15c-0.03-0.08-0.08-0.19-0.12-0.24-0.04-0.06-0.11-0.15-0.16-0.2s-0.23-0.17-0.39-0.27-0.37-0.23-0.47-0.29c-0.1-0.07-0.29-0.21-0.43-0.31s-0.35-0.26-0.46-0.35-0.28-0.23-0.36-0.3c-0.09-0.08-0.26-0.23-0.37-0.34-0.12-0.11-0.33-0.33-0.47-0.47-0.14-0.15-0.35-0.38-0.46-0.52-0.11-0.13-0.29-0.36-0.41-0.51-0.11-0.15-0.28-0.39-0.37-0.53-0.1-0.14-0.22-0.34-0.28-0.43-0.06-0.1-0.17-0.28-0.24-0.4-0.07-0.13-0.2-0.37-0.28-0.55-0.09-0.17-0.22-0.44-0.28-0.59-0.07-0.16-0.17-0.4-0.23-0.55-0.05-0.16-0.14-0.41-0.19-0.56-0.05-0.16-0.13-0.45-0.19-0.66-0.05-0.2-0.12-0.5-0.15-0.67-0.04-0.16-0.08-0.44-0.11-0.63s-0.06-0.5-0.08-0.7c-0.02-0.25-0.04-0.57-0.04-0.98 0-0.34 0.02-0.75 0.03-0.91s0.04-0.44 0.06-0.62c0.02-0.17 0.07-0.48 0.11-0.68 0.03-0.2 0.11-0.54 0.16-0.75 0.06-0.22 0.15-0.56 0.22-0.76 0.06-0.21 0.17-0.5 0.23-0.65 0.05-0.15 0.15-0.38 0.2-0.5 0.06-0.12 0.18-0.38 0.27-0.57 0.1-0.19 0.25-0.48 0.35-0.64 0.09-0.16 0.25-0.42 0.36-0.59s0.3-0.43 0.41-0.58 0.29-0.38 0.4-0.51c0.11-0.12 0.3-0.34 0.42-0.47 0.13-0.14 0.34-0.36 0.48-0.49 0.14-0.14 0.38-0.35 0.53-0.49 0.16-0.13 0.43-0.35 0.6-0.47 0.17-0.13 0.44-0.33 0.61-0.44s0.44-0.28 0.6-0.37c0.16-0.1 0.44-0.24 0.62-0.33s0.44-0.22 0.58-0.28 0.37-0.16 0.52-0.21c0.14-0.06 0.42-0.16 0.6-0.22 0.19-0.06 0.46-0.14 0.6-0.18 0.14-0.03 0.37-0.09 0.51-0.12s0.38-0.08 0.54-0.11c0.15-0.03 0.42-0.07 0.58-0.09 0.17-0.02 0.45-0.04 0.62-0.06 0.17-0.01 0.37-0.02 0.44-0.03zm64.52 3.28h9.32c2.15 0 3.57 1.31 3.57 3.26 0 1.96-1.42 3.23-3.57 3.23h-9.32v-6.49zm42.26 1.92c-4.37 0-9.27 1.5-12.72 4.95l3.17 5.64 0.74-0.69c2.19-2.01 4.72-3.05 7.6-3.05 3.23 0 5.3 1.5 5.3 3.8v2.93c-1.96-1.67-4.84-2.59-8-2.59-4.43 0-9.67 2.54-9.67 8.98 0 6.22 5.24 9.22 9.67 9.22 3.16 0 6.04-0.98 8-2.71v2.01h8.12v-17.96c-0.06-8-5.88-10.53-12.21-10.53zm99.5 0c-4.38 0-9.27 1.5-12.72 4.95l3.16 5.64 0.75-0.69c2.19-2.01 4.72-3.05 7.6-3.05 3.22 0 5.3 1.5 5.3 3.8v2.93c-1.96-1.67-4.84-2.59-8.01-2.59-4.43 0-9.67 2.54-9.67 8.98 0 6.22 5.24 9.22 9.67 9.22 3.17 0 6.05-0.98 8.01-2.71v2.01h8.11v-17.96c-0.05-8-5.87-10.53-12.2-10.53zm30.27 0c-7.03 0-12.26 5.06-12.26 14.16 0 9.27 5.29 14.16 12.26 14.16 2.99 0 5.64-1.26 7.71-3.39v1.84c0 5.64-4.78 6.22-6.79 6.22-3.51 0-6.16-1.04-8.12-3.17l-0.75-0.81-3.8 6.11c3.8 3.62 7.83 4.66 12.67 4.66 6.79 0 14.97-2.59 14.97-13.13v-25.96h-8.18v2.65c-2.13-2.25-4.78-3.34-7.71-3.34zm36.08 0c-8.46 0-14.39 6.5-14.39 14.56 0 8.98 6.39 14.63 14.85 14.63 4.32 0 8.81-1.1 12.03-4.38l-3.68-5.41-0.69 0.69c-1.73 1.61-4.84 2.53-6.91 2.53-3.57 0-6.22-1.9-7.02-4.83h19.68v-2.42c0.06-9.15-5.58-15.37-13.87-15.37zm66.28 0c-3.91 0-6.97 1.67-8.92 3.45v-2.76h-8.12v27.8h8.12v-18.42c0.69-0.86 2.53-2.76 5.52-2.76 3.06 0 4.32 1.32 4.32 4.38v16.8h8.12v-19.63c0-5.41-2.94-8.86-9.04-8.86zm73.13 0c-7.02 0-12.26 5.06-12.26 14.16 0 9.27 5.3 14.16 12.26 14.16 3 0 5.65-1.26 7.72-3.39v1.84c0 5.64-4.78 6.22-6.79 6.22-3.52 0-6.16-1.04-8.12-3.17l-0.75-0.81-3.8 6.11c3.8 3.62 7.83 4.66 12.67 4.66 6.79 0 14.96-2.59 14.96-13.13v-25.96h-8.17v2.65c-2.13-2.25-4.78-3.34-7.72-3.34zm-45.4 0.06c-7.02 0-11.11 3.85-11.4 8.29v0.97c0.35 6.8 5.99 8.12 10.71 9.1 2.53 0.52 4.95 0.98 4.95 2.13 0 1.96-2.65 2.19-3.8 2.19-3.28 0-7.25-1.84-9.09-3.57l-0.69-0.69-3.63 5.81c3.16 3.34 8.23 4.9 13.06 4.9 7.49 0 11.75-3.63 11.98-8.47v-0.46c0.11-0.11 0.12-0.28 0.06-0.46-0.29-7.19-6.39-8.63-11-9.55-2.24-0.46-4.6-0.92-4.6-1.85 0-1.09 1.49-1.95 3.56-1.95 3.34 0 6.22 1.49 7.6 2.99l0.75 0.81 3.51-5.99c-3.22-2.65-7.25-4.2-11.97-4.2zm18.6 0.63v27.81h8.18v-27.81h-8.18zm-409 5.11c-1.99 0.01-2.38 0.01-2.47 0.04-0.06 0.01-0.16 0.05-0.23 0.09-0.09 0.04-0.18 0.11-0.27 0.2s-0.16 0.18-0.2 0.26c-0.03 0.07-0.07 0.18-0.09 0.24-0.02 0.07-0.03 0.19-0.03 0.27s0.01 0.2 0.03 0.26c0.02 0.07 0.06 0.18 0.09 0.25 0.04 0.08 0.11 0.17 0.2 0.26s0.18 0.16 0.27 0.2c0.07 0.04 0.18 0.08 0.24 0.1 0.1 0.02 0.43 0.02 2.46 0.02 2.04 0 2.37 0 2.47-0.02 0.06-0.02 0.17-0.06 0.24-0.1 0.09-0.04 0.18-0.11 0.27-0.2s0.16-0.18 0.2-0.26c0.03-0.07 0.07-0.18 0.09-0.25 0.02-0.06 0.03-0.18 0.03-0.26s-0.01-0.2-0.03-0.27c-0.02-0.06-0.06-0.17-0.09-0.24-0.04-0.08-0.11-0.17-0.2-0.26s-0.18-0.16-0.27-0.2c-0.07-0.04-0.17-0.08-0.24-0.1-0.1-0.02-0.43-0.03-2.47-0.03zm48.4 0c-1.99 0.01-2.37 0.01-2.46 0.04-0.06 0.01-0.17 0.05-0.24 0.09-0.08 0.04-0.17 0.11-0.26 0.2s-0.16 0.18-0.2 0.26c-0.04 0.07-0.08 0.18-0.09 0.24-0.02 0.07-0.03 0.19-0.03 0.27s0.01 0.2 0.03 0.26c0.01 0.07 0.05 0.18 0.09 0.25 0.04 0.08 0.11 0.17 0.2 0.26s0.18 0.16 0.26 0.2c0.07 0.04 0.18 0.08 0.25 0.1 0.1 0.02 0.43 0.02 2.46 0.02 2.04 0 2.37 0 2.47-0.02 0.06-0.02 0.17-0.06 0.24-0.1 0.08-0.04 0.18-0.11 0.27-0.2 0.08-0.09 0.15-0.18 0.2-0.26 0.03-0.07 0.07-0.18 0.09-0.25 0.02-0.06 0.03-0.18 0.03-0.26s-0.01-0.2-0.03-0.27c-0.02-0.06-0.06-0.17-0.09-0.24-0.05-0.08-0.12-0.18-0.2-0.26-0.1-0.1-0.19-0.16-0.27-0.2-0.07-0.04-0.18-0.08-0.24-0.1-0.1-0.02-0.43-0.03-2.48-0.03zm247.99 0.82c3.74 0 5.81 2.7 6.04 5.35h-12.09c0.47-2.88 2.54-5.35 6.05-5.35zm-134.31 0.69c3.8 0 6.27 2.88 6.27 7.31 0.06 4.43-2.42 7.26-6.27 7.26-1.96 0-4.32-1.1-5.41-2.59v-9.33c1.09-1.5 3.45-2.65 5.41-2.65zm33.95 0c3.8 0 6.27 2.88 6.27 7.31 0.06 4.43-2.41 7.26-6.27 7.26-1.96 0-4.32-1.1-5.41-2.59v-9.33c1.09-1.5 3.45-2.65 5.41-2.65zm66.58 0c2.07 0 4.32 1.15 5.41 2.65v8.4c-1.15 1.5-3.45 2.65-5.41 2.65-3.86 0-6.22-2.65-6.22-6.85s2.36-6.85 6.22-6.85zm175.5 0c2.07 0 4.31 1.15 5.41 2.65v8.4c-1.15 1.5-3.46 2.65-5.41 2.65-3.86 0-6.22-2.65-6.22-6.85s2.36-6.85 6.22-6.85zm-349.83 6.12h9.59c2.46 0 4.03 1.42 4.03 3.57 0 3.07-2.49 3.53-4.03 3.53h-9.59v-7.1zm41.22 3.32c2.13 0 4.04 0.69 5.07 1.9v2.88c-1.03 1.21-2.88 1.9-5.07 1.9-2.18 0-4.43-1.04-4.43-3.28 0-2.48 2.42-3.4 4.43-3.4zm99.5 0c2.13 0 4.03 0.69 5.07 1.9v2.88c-1.04 1.21-2.88 1.9-5.07 1.9-2.18 0-4.43-1.04-4.43-3.28 0-2.48 2.42-3.4 4.43-3.4zm-204.8 15.46c-1.93 0-2.37 0.01-2.46 0.03-0.06 0.01-0.16 0.05-0.22 0.08-0.05 0.03-0.14 0.08-0.18 0.12-0.05 0.04-0.11 0.09-0.14 0.12-0.02 0.02-0.08 0.1-0.12 0.16s-0.09 0.17-0.12 0.25c-0.04 0.11-0.05 0.19-0.05 0.33 0 0.15 0.01 0.22 0.05 0.33 0.03 0.08 0.08 0.2 0.12 0.26s0.1 0.13 0.12 0.16c0.03 0.03 0.09 0.08 0.14 0.12 0.04 0.04 0.13 0.09 0.18 0.12 0.06 0.03 0.16 0.06 0.23 0.08 0.1 0.02 0.46 0.03 2.46 0.03 2.01 0 2.35-0.01 2.46-0.03 0.07-0.02 0.18-0.06 0.26-0.1 0.07-0.04 0.17-0.11 0.23-0.17s0.14-0.15 0.18-0.21 0.09-0.18 0.12-0.26c0.03-0.11 0.04-0.18 0.04-0.33 0-0.14-0.01-0.22-0.04-0.33-0.03-0.08-0.08-0.19-0.12-0.25s-0.12-0.16-0.18-0.21c-0.06-0.06-0.16-0.14-0.23-0.17-0.08-0.04-0.19-0.09-0.26-0.1-0.11-0.03-0.45-0.03-2.47-0.03z" />
</g>
</svg>