<?xml version="1.0" encoding="utf-8"?>
<svg version="1.1" xmlns="http://www.w3.org/2000/svg" xmlns:xlink="http://www.w3.org/1999/xlink" x="0px" y="0px" viewBox="0 0 200 200" enable-background="new 0 0 200 200" xml:space="preserve">

  
  <defs id="defs523358"/>
  <linearGradient id="3d_gradient2-logo-79EE4AAB05C546A4BBE6325C091D8765" x1="30%" y1="120%" x2="-10%" y2="30%" spreadMethod="pad">
    <stop offset="0%" stop-color="#ffffff" stop-opacity="1" id="stop523335"/>
    <stop offset="100%" stop-color="#000000" stop-opacity="1" id="stop523337"/>
  </linearGradient>
  <linearGradient id="3d_gradient3-logo-79EE4AAB05C546A4BBE6325C091D8765" x1="30%" y1="120%" x2="-10%" y2="30%" spreadMethod="pad" gradientTransform="rotate(-30)">
    <stop offset="0%" stop-color="#ffffff" stop-opacity="1" id="stop523340"/>
    <stop offset="50%" stop-color="#cccccc" stop-opacity="1" id="stop523342"/>
    <stop offset="100%" stop-color="#000000" stop-opacity="1" id="stop523344"/>
  </linearGradient>
  <path style="font-style:normal;font-weight:normal;font-size:medium;line-height:1;font-family:'Brandmark Sans 1 Color';font-variant-ligatures:normal;text-align:center;text-anchor:middle;fill:#ff0000;stroke:#ff0000;stroke-width:0;stroke-linejoin:miter;stroke-miterlimit:2" id="path11" stroke-miterlimit="2" d="m 149.98955,127.63287 c 0,17.98334 -12.10839,32.36711 -34.8839,32.36711 H 50.010486 V 39.999983 h 63.175854 c 22.77793,0 34.52542,14.625204 34.52542,30.569748 0,15.104408 -9.46967,25.175221 -20.73915,27.572536 12.70834,2.037553 23.01694,14.384963 23.01694,29.490603 z M 78.421959,85.194911 h 29.130891 c 6.71144,0 11.14754,-3.955644 11.14754,-10.069614 0,-6.11397 -4.4361,-10.190332 -11.14754,-10.190332 H 78.421959 Z m 42.556201,38.840799 c 0,-6.71267 -4.91408,-11.14877 -12.5864,-11.14877 H 78.421959 v 22.17801 h 29.969831 c 4.79455,0 12.58637,-1.43886 12.58637,-11.02924 z" class="c1"/>

</svg>