<?xml version="1.0" encoding="utf-8"?>
<svg version="1.1" xmlns="http://www.w3.org/2000/svg" xmlns:xlink="http://www.w3.org/1999/xlink" x="0px" y="0px" viewBox="0 0 1024 1024" enable-background="new 0 0 1024 1024" xml:space="preserve">
<g transform="translate(0 128)">

 
 <g id="logo-group" transform="translate(-37.35 -20.533) scale(1.066)">
  <path id="path12" style="font-variant-ligatures:normal" d="m382.59 387.53c0 5.4009-3.6365 9.7207-10.477 9.7207h-19.55v-36.04h18.973c6.8408 0 10.369 4.3923 10.369 9.1809 0 4.5362-2.844 7.5608-6.2285 8.2808 3.8167 0.61193 6.9126 4.3202 6.9126 8.8568zm-21.494-12.745h8.7488c2.0156 0 3.3479-1.188 3.3479-3.0242s-1.3323-3.0604-3.3479-3.0604h-8.7488zm12.781 11.665c0-2.016-1.4758-3.3483-3.78-3.3483h-9.0007v6.6606h9.0007c1.4399 0 3.78-0.43212 3.78-3.3124z" class="c1" stroke-miterlimit="2" stroke-width="0" fill="#f00"/>
  <path id="path15" style="font-variant-ligatures:normal" d="m412.19 380.38v16.849h-7.615v-1.8896c-1.8362 1.6201-4.5366 2.5378-7.5066 2.5378-4.158 0-9.0725-2.8081-9.0725-8.6404 0-6.0491 4.9146-8.4247 9.0725-8.4247 2.97 0 5.6704 0.86389 7.5066 2.4298v-2.7539c0-2.1603-1.9438-3.5643-4.968-3.5643-2.7004 0-5.0764 0.97192-7.1287 2.8623l-0.70239 0.64783-2.97-5.2925c3.2402-3.2402 7.8303-4.6443 11.935-4.6443 5.9407-0.00001 11.395 2.3763 11.449 9.8829zm-12.421 12.097c2.0522 0 3.78-0.64819 4.752-1.7827v-2.6997c-0.97192-1.1345-2.7539-1.7827-4.752-1.7827-1.8904 0-4.1587 0.86426-4.1587 3.1868 0 2.1057 2.1064 3.0784 4.1587 3.0784z" class="c1" stroke-miterlimit="2" stroke-width="0" fill="#f00"/>
  <path id="path18" style="font-variant-ligatures:normal" d="m444.1 384.16c0 8.748-4.9688 13.717-11.558 13.717-2.7539 0-5.2925-1.1338-7.2905-3.1326v2.4844h-7.6143v-36.01h7.6143v12.367c1.9446-2.0522 4.5366-3.0784 7.237-3.0784 6.6965-0.00001 11.611 5.1844 11.611 13.664zm-13.772 6.8584c3.6189 0 5.9407-2.6462 5.8865-6.8049 0-4.1583-2.3218-6.8584-5.8865-6.8584-1.8362 0-4.0503 1.08-5.0764 2.484v8.7492c1.0261 1.404 3.2402 2.4302 5.0764 2.4302z" class="c1" stroke-miterlimit="2" stroke-width="0" fill="#f00"/>
  <path id="path21" style="font-variant-ligatures:normal" d="m475.95 384.16c0 8.748-4.9688 13.717-11.558 13.717-2.7539 0-5.2925-1.1338-7.2905-3.1326v2.4844h-7.6143v-36.01h7.6143v12.367c1.9446-2.0522 4.5366-3.0784 7.2371-3.0784 6.6965-0.00001 11.611 5.1844 11.611 13.664zm-13.772 6.8584c3.6189 0 5.9407-2.6462 5.8865-6.8049 0-4.1583-2.3218-6.8584-5.8865-6.8584-1.8362 0-4.0503 1.08-5.0764 2.484v8.7492c1.0261 1.404 3.2402 2.4302 5.0764 2.4302z" class="c1" stroke-miterlimit="2" stroke-width="0" fill="#f00"/>
  <path id="path24" style="font-variant-ligatures:normal" d="m505.53 380.38v16.849h-7.615v-1.8896c-1.8362 1.6201-4.5366 2.5378-7.5066 2.5378-4.158 0-9.0725-2.8081-9.0725-8.6404 0-6.0491 4.9146-8.4247 9.0725-8.4247 2.97 0 5.6704 0.86389 7.5066 2.4298v-2.7539c0-2.1603-1.9438-3.5643-4.968-3.5643-2.7004 0-5.0764 0.97192-7.1287 2.8623l-0.70239 0.64783-2.97-5.2925c3.24-3.25 7.83-4.65 11.93-4.65 5.9407-0.00001 11.395 2.3763 11.449 9.8829zm-12.421 12.097c2.0522 0 3.78-0.64819 4.752-1.7827v-2.6997c-0.97192-1.1345-2.7539-1.7827-4.752-1.7827-1.8904 0-4.1587 0.86426-4.1587 3.1868 0 2.1057 2.1064 3.0784 4.1587 3.0784z" class="c1" stroke-miterlimit="2" stroke-width="0" fill="#f00"/>
  <path id="path27" style="font-variant-ligatures:normal" d="m523.34 407.82c-4.5366 0-8.3167-0.97192-11.881-4.374l3.5647-5.7246 0.70167 0.75586c1.8362 1.998 4.3206 2.9707 7.615 2.9707 1.8904 0 6.3728-0.54053 6.3728-5.833v-1.7278c-1.9446 1.998-4.429 3.186-7.2371 3.186-6.5347 0-11.503-4.5901-11.503-13.285 0-8.5327 4.9146-13.285 11.503-13.285 2.7546 0 5.2383 1.0261 7.2371 3.1322v-2.484h7.6685v24.356c0 9.8826-7.6685 12.313-14.041 12.313zm1.2964-17.605c1.8354 0 3.9961-1.0803 5.0764-2.4844v-7.8849c-1.0261-1.404-3.1326-2.484-5.0764-2.484-3.6189 0-5.833 2.484-5.833 6.4263-0.00001 3.9426 2.2141 6.427 5.833 6.427z" class="c1" stroke-miterlimit="2" stroke-width="0" fill="#f00"/>
  <path id="path30" style="font-variant-ligatures:normal" d="m569.34 384.92v2.2683h-18.469c0.75586 2.7539 3.2402 4.5359 6.5889 4.5359 1.9438 0 4.8604-0.86353 6.4805-2.376l0.64819-0.64819 3.4563 5.0764c-3.0242 3.0784-7.2371 4.1045-11.287 4.1045-7.9387 0-13.933-5.2925-13.933-13.717 0-7.5612 5.562-13.664 13.501-13.664 7.7768 0 13.069 5.8326 13.015 14.42zm-7.3447-3.1868c-0.21607-2.484-2.1599-5.0222-5.6704-5.0222-3.2937 0-5.2383 2.3222-5.6704 5.0222z" class="c1" stroke-miterlimit="2" stroke-width="0" fill="#f00"/>
  <path id="path33" style="font-variant-ligatures:normal" d="m588.6 361.27h8.5327v36.003h-8.5327z" class="c1" stroke-miterlimit="2" stroke-width="0" fill="#f00"/>
  <path id="path36" style="font-variant-ligatures:normal" d="m626.99 378.82v18.416h-7.6142v-15.769c0-2.8623-1.188-4.1041-4.0503-4.1041-2.8081 0-4.5366 1.782-5.1848 2.592v17.281h-7.6143v-26.084h7.6143v2.592c1.8362-1.674 4.6985-3.2402 8.3708-3.2402 5.7246 0 8.4785 3.2402 8.4785 8.3167z" class="c1" stroke-miterlimit="2" stroke-width="0" fill="#f00"/>
  <path id="path39" style="font-variant-ligatures:normal" d="m655.86 389.51v0.43213c-0.21607 4.5366-4.2122 7.9387-11.233 7.9387-4.5359 0-9.2886-1.4582-12.259-4.5901l3.4021-5.4551 0.64819 0.6482c1.7278 1.6201 5.4544 3.3486 8.5327 3.3486 1.0803 0 3.564-0.21607 3.564-2.0522 0-1.0803-2.2683-1.5124-4.6443-1.998-4.4282-0.91845-9.7207-2.1606-10.044-8.5331v-0.91809c0.26953-4.1583 4.1038-7.7768 10.693-7.7768 4.4282 0 8.209 1.4582 11.233 3.9426l-3.2944 5.6162-0.70239-0.75586c-1.2957-1.404-3.9961-2.8085-7.1287-2.8085-1.9438 0-3.3479 0.81043-3.3479 1.8362 0 0.86425 2.2141 1.2964 4.3206 1.7282 4.3198 0.86425 10.044 2.2145 10.315 8.9648 0.0542 0.1626 0.0542 0.32446-0.0542 0.43212z" class="c1" stroke-miterlimit="2" stroke-width="0" fill="#f00"/>
  <path id="path42" style="font-variant-ligatures:normal" d="m661.27 364.61c0-2.4844 1.998-4.4286 4.4824-4.4286 2.4836 0 4.5359 1.9442 4.5359 4.4286 0 2.484-2.0522 4.4824-4.5359 4.4824-2.4302 0-4.4824-2.0522-4.4824-4.4824zm0.70166 6.5347h7.6692v26.084h-7.6692z" class="c1" stroke-miterlimit="2" stroke-width="0" fill="#f00"/>
  <path id="path45" style="font-variant-ligatures:normal" d="m687.98 407.82c-4.5366 0-8.3167-0.97192-11.881-4.374l3.5647-5.7246 0.70167 0.75586c1.8362 1.998 4.3206 2.9707 7.615 2.9707 1.8904 0 6.3728-0.54053 6.3728-5.833v-1.7278c-1.9446 1.998-4.429 3.186-7.2371 3.186-6.5347 0-11.503-4.5901-11.503-13.285 0-8.5327 4.9146-13.285 11.503-13.285 2.7546 0 5.2383 1.0261 7.2371 3.1322v-2.484h7.6685v24.356c0 9.8826-7.6685 12.313-14.041 12.313zm1.2964-17.605c1.8354 0 3.9961-1.0803 5.0764-2.4844v-7.8849c-1.0261-1.404-3.1326-2.484-5.0764-2.484-3.6189 0-5.833 2.484-5.833 6.4263-0.00001 3.9426 2.2141 6.427 5.833 6.427z" class="c1" stroke-miterlimit="2" stroke-width="0" fill="#f00"/>
  <path id="path48" style="font-variant-ligatures:normal" d="m732.04 378.71v18.524h-7.6685v-15.87c0-2.8623-1.1887-3.9961-4.1045-3.9961-2.7004 0-4.5366 1.782-5.1848 2.592v17.281h-7.62v-36.03h7.6143v12.529c1.8362-1.674 4.7527-3.2402 8.425-3.2402 5.7246-0.00001 8.5327 3.1322 8.5327 8.2086z" class="c1" stroke-miterlimit="2" stroke-width="0" fill="#f00"/>
  <path id="path51" style="font-variant-ligatures:normal" d="m749.14 397.94c-4.8062 0-7.3989-2.4844-7.3989-7.1287v-13.23h-4.3198v-6.7504h4.3198v-6.76h7.6692v6.7507h4.4824v6.7504h-4.5366v11.45c0 1.0261 0.43213 2.1057 1.6201 2.1057 0.97192 0 1.5659-0.32374 1.9446-0.5398 0.32373-0.21607 0.91772-0.75586 0.91772-0.75586l1.6743 5.9399c-1.404 1.4048-3.5105 2.1606-6.3728 2.1606z" class="c1" stroke-miterlimit="2" stroke-width="0" fill="#f00"/>
  <path id="icon" stroke-width="0.33" d="m300.98 351.18c-0.0811 0.00056-0.19284 0.013-0.24843 0.0277-0.0554 0.0145-0.15449 0.0532-0.22018 0.0859-0.0765 0.038-0.16531 0.1055-0.24769 0.18788-0.0826 0.0826-0.14973 0.171-0.18771 0.2477-0.0327 0.0655-0.0719 0.16843-0.0871 0.22861-0.0242 0.0949-0.0279 0.40293-0.0279 2.3126 0 1.9096 0.004 2.2177 0.0279 2.3126 0.0152 0.0602 0.0545 0.16293 0.0871 0.22862 0.038 0.0767 0.10514 0.16513 0.18771 0.2477 0.0826 0.0826 0.171 0.14972 0.24769 0.1877 0.0657 0.0327 0.16844 0.0719 0.22862 0.0872 0.0602 0.0154 0.17192 0.0279 0.24843 0.0279 0.0765 0 0.18825-0.0125 0.24843-0.0279 0.0602-0.0152 0.16312-0.0545 0.22862-0.0872 0.0767-0.038 0.16513-0.10514 0.2477-0.1877 0.0826-0.0826 0.14972-0.17101 0.1877-0.2477 0.0327-0.0657 0.0719-0.16844 0.0872-0.22862 0.0242-0.0949 0.0279-0.40293 0.0279-2.3126 0-1.9096-0.004-2.2177-0.0279-2.3126-0.0152-0.0602-0.0545-0.16311-0.0872-0.22861-0.038-0.0767-0.10514-0.16514-0.1877-0.2477-0.0826-0.0826-0.17101-0.14972-0.2477-0.1877-0.0655-0.0327-0.16844-0.0719-0.22862-0.0872-0.0602-0.0154-0.17577-0.0273-0.25687-0.0266zm-17.512 7.2481c-0.0554 0.00056-0.151 0.0119-0.2121 0.0253-0.0613 0.0132-0.16862 0.0517-0.23853 0.0857-0.0899 0.0433-0.16788 0.10183-0.26531 0.19907-0.0949 0.0947-0.15651 0.17596-0.19798 0.26073-0.033 0.0679-0.0721 0.17926-0.0866 0.2477-0.0145 0.0686-0.0264 0.16219-0.0266 0.20843-0.00019 0.046 0.008 0.13266 0.0193 0.19265 0.0108 0.0598 0.0529 0.1789 0.0936 0.26477l0.0739 0.15595 1.5601 1.5622c1.1981 1.1998 1.5862 1.5777 1.6724 1.6289 0.0618 0.0367 0.16495 0.0829 0.22916 0.10294 0.0642 0.02 0.17156 0.0411 0.23853 0.0472 0.0798 0.007 0.16899 0.00073 0.25926-0.0182 0.0758-0.016 0.19962-0.0594 0.27522-0.0965 0.0947-0.0464 0.17522-0.10532 0.25834-0.18844 0.0829-0.0828 0.14219-0.16403 0.1888-0.25852 0.0389-0.0789 0.0809-0.20366 0.0982-0.29155 0.0251-0.12752 0.0268-0.17742 0.01-0.29375-0.0112-0.0771-0.038-0.18733-0.0596-0.24495-0.0215-0.0576-0.0712-0.15247-0.11027-0.21063-0.0422-0.0624-0.70455-0.73722-1.6183-1.6484l-1.5467-1.5428-0.13299-0.0683c-0.0732-0.0376-0.1888-0.0802-0.25687-0.0945-0.0683-0.0145-0.16935-0.0259-0.22495-0.0251zm35.036 0c-0.0505 0.00056-0.14532 0.0127-0.211 0.0268-0.0655 0.0141-0.1811 0.0558-0.25687 0.0923l-0.13761 0.0666-1.5792 1.5805c-1.3442 1.3451-1.5878 1.5968-1.6361 1.6906-0.031 0.0605-0.0712 0.15962-0.0892 0.22017-0.0205 0.0697-0.0325 0.17064-0.0325 0.27522 0 0.10459 0.0119 0.2055 0.0325 0.27522 0.018 0.0605 0.0587 0.15963 0.0906 0.22018 0.0319 0.0605 0.11229 0.16458 0.17853 0.23137 0.0829 0.0833 0.1633 0.14219 0.25687 0.18825 0.075 0.0369 0.19834 0.0802 0.27394 0.0961 0.0903 0.0189 0.17944 0.0251 0.25926 0.0182 0.067-0.006 0.1743-0.0272 0.23852-0.0472 0.0642-0.02 0.16733-0.0662 0.22916-0.10293 0.0862-0.0512 0.47431-0.42917 1.6724-1.629l1.5601-1.5622 0.074-0.15596c0.0407-0.0859 0.0827-0.20495 0.0936-0.26476 0.0108-0.06 0.0194-0.1466 0.0193-0.19266-0.00018-0.0462-0.0121-0.13981-0.0266-0.20843-0.0145-0.0684-0.0536-0.17981-0.0866-0.2477-0.0413-0.0846-0.1033-0.16623-0.19797-0.26109-0.0949-0.0947-0.17651-0.15669-0.2611-0.19798-0.0679-0.033-0.17926-0.0721-0.2477-0.0866-0.0686-0.0145-0.16586-0.0259-0.21632-0.0251zm-17.568 5.1384c-0.28751 0.001-0.63027 0.009-0.76144 0.0174-0.13119 0.008-0.37063 0.0281-0.53209 0.0442-0.16147 0.0161-0.43356 0.0501-0.60476 0.0754-0.17119 0.0253-0.41887 0.0662-0.55044 0.091-0.13156 0.0248-0.36624 0.0745-0.52147 0.11064-0.15522 0.036-0.4152 0.10201-0.57796 0.14697-0.16275 0.0448-0.45504 0.13486-0.6499 0.20018-0.19468 0.0653-0.4919 0.17357-0.66053 0.24054-0.16844 0.067-0.46715 0.19485-0.66366 0.28439-0.19651 0.0894-0.50602 0.2422-0.68805 0.33924-0.18201 0.0972-0.45468 0.25119-0.60605 0.34202-0.15137 0.091-0.37834 0.23338-0.50457 0.3165-0.12605 0.0829-0.32421 0.21926-0.44035 0.30256-0.11596 0.0835-0.32054 0.23797-0.45467 0.34329-0.13394 0.10532-0.33063 0.26605-0.43706 0.35706-0.10641 0.091-0.30237 0.26678-0.4352 0.39063-0.13302 0.12384-0.34089 0.32732-0.4622 0.45226-0.12109 0.12495-0.29081 0.30549-0.37722 0.40145-0.0864 0.0958-0.22274 0.25265-0.30293 0.34861-0.08 0.0958-0.21669 0.26513-0.30329 0.37613-0.0868 0.11101-0.22605 0.29687-0.30953 0.41283-0.0835 0.11596-0.21981 0.31412-0.30274 0.44035-0.0831 0.12605-0.2255 0.3532-0.31632 0.50457-0.0908 0.15137-0.22568 0.3866-0.29962 0.52292-0.0739 0.13633-0.19927 0.38257-0.27816 0.54714-0.0791 0.16477-0.20146 0.43557-0.27174 0.60199-0.0704 0.16623-0.18109 0.44843-0.24586 0.62713-0.0648 0.17853-0.15632 0.44844-0.2033 0.59981-0.0471 0.15137-0.12972 0.4486-0.18366 0.66053-0.0539 0.21191-0.12275 0.50915-0.15302 0.66052-0.0301 0.15137-0.076 0.41138-0.10165 0.57797-0.0255 0.16641-0.055 0.37299-0.0655 0.4587-0.0105 0.0859-0.0317 0.29228-0.0473 0.4587-0.0156 0.1666-0.0332 0.58347-0.0391 0.92657-0.007 0.39979-0.003 0.74897 0.0108 0.97244 0.0121 0.19174 0.0341 0.46824 0.0492 0.61466 0.015 0.14623 0.0481 0.4064 0.0736 0.57796 0.0253 0.17156 0.0708 0.43979 0.10128 0.59631 0.0305 0.15633 0.0831 0.40036 0.11688 0.54219 0.0339 0.14165 0.0831 0.33558 0.10954 0.43118 0.0264 0.0954 0.0861 0.29724 0.13229 0.4486 0.0462 0.15137 0.13283 0.40934 0.19228 0.57302 0.0594 0.16384 0.16055 0.42401 0.22477 0.57796 0.064 0.15412 0.17908 0.41448 0.2554 0.57869 0.0765 0.16421 0.21064 0.43263 0.29834 0.59631 0.0877 0.16384 0.23357 0.42164 0.32403 0.57301 0.0906 0.15137 0.25155 0.40623 0.35778 0.56621 0.10606 0.16 0.30238 0.43649 0.43597 0.61466 0.13357 0.17797 0.33135 0.42933 0.43962 0.55852 0.10844 0.12936 0.28476 0.33136 0.39227 0.44917 0.10752 0.11779 0.29889 0.31742 0.42531 0.44385 0.12641 0.12642 0.32604 0.31778 0.44385 0.4253 0.11779 0.10752 0.3198 0.28366 0.44916 0.39174 0.12917 0.10807 0.36402 0.29376 0.52199 0.41247 0.15798 0.11871 0.40769 0.29687 0.55503 0.39577l0.26788 0.18v1.6342c0.00019 0.97172 0.008 1.7385 0.0195 1.8911 0.0106 0.14128 0.0393 0.37247 0.0633 0.51374 0.0242 0.14128 0.0728 0.36128 0.10789 0.4888 0.0352 0.12751 0.0939 0.31338 0.13064 0.41283 0.0365 0.0994 0.13541 0.32127 0.21962 0.49282 0.0842 0.17155 0.22752 0.42329 0.31834 0.55961 0.0906 0.13614 0.22128 0.31779 0.29008 0.40366 0.0686 0.0857 0.23247 0.26402 0.36383 0.39613 0.13155 0.13229 0.32586 0.30916 0.43174 0.39319 0.10605 0.0842 0.28916 0.21633 0.40695 0.29357 0.11798 0.0772 0.32862 0.19871 0.46788 0.2699 0.13944 0.0712 0.34861 0.16715 0.46457 0.21321 0.11614 0.046 0.31008 0.1121 0.43118 0.14678 0.1211 0.0347 0.30274 0.0802 0.40366 0.10091 0.10091 0.0209 0.27852 0.0521 0.39448 0.0695 0.1888 0.0283 0.45246 0.0323 2.5137 0.0387 1.5409 0.005 2.3972 0.00066 2.5882-0.0127 0.15706-0.0108 0.38825-0.0365 0.51374-0.0569 0.1255-0.0204 0.33981-0.0662 0.47596-0.10183 0.13633-0.0358 0.35924-0.10661 0.4954-0.15743 0.13633-0.051 0.36861-0.15376 0.51632-0.22843 0.14788-0.0747 0.37907-0.20936 0.51374-0.29908 0.13486-0.0899 0.31522-0.21944 0.40108-0.28788 0.0859-0.0684 0.26403-0.23228 0.39614-0.36402 0.13192-0.13174 0.30898-0.32623 0.39319-0.4321 0.084-0.10606 0.21798-0.29174 0.2976-0.41283 0.0794-0.1211 0.20844-0.34825 0.28678-0.50457 0.0782-0.15651 0.18165-0.39155 0.22991-0.52256 0.0482-0.131 0.11614-0.34917 0.15082-0.48457 0.0347-0.13541 0.0793-0.34604 0.0989-0.46824 0.0196-0.12201 0.0442-0.33336 0.0545-0.46952 0.0106-0.14128 0.0187-0.94951 0.0187-1.881v-1.6333l0.23375-0.15559c0.12843-0.0855 0.37815-0.26385 0.55503-0.39633 0.17669-0.13247 0.40807-0.31339 0.51394-0.40201 0.10605-0.0886 0.28696-0.24439 0.4022-0.3464 0.11523-0.10183 0.3464-0.32164 0.51375-0.4886 0.16733-0.16696 0.39979-0.41062 0.51684-0.54126 0.11688-0.13082 0.29394-0.33687 0.3932-0.45798 0.0994-0.12109 0.27375-0.34475 0.38752-0.49704 0.11375-0.15229 0.29393-0.40696 0.40035-0.56569 0.1066-0.15889 0.27082-0.41814 0.36511-0.57631 0.0941-0.15816 0.24311-0.42144 0.33099-0.58529 0.0877-0.16366 0.22201-0.4321 0.29853-0.59631 0.0763-0.16421 0.19137-0.42458 0.2554-0.57869 0.0642-0.15394 0.16532-0.41411 0.22476-0.57796 0.0594-0.16366 0.14605-0.42164 0.19229-0.57301 0.0462-0.15137 0.10587-0.3532 0.13229-0.4486 0.0264-0.0956 0.0756-0.28953 0.10954-0.43118 0.0338-0.14183 0.0864-0.38587 0.11687-0.54219 0.0305-0.15651 0.076-0.42474 0.10128-0.59631 0.0255-0.17155 0.0585-0.43174 0.0736-0.57796 0.0153-0.14642 0.0374-0.43118 0.0494-0.63301 0.0138-0.23265 0.0176-0.58859 0.0107-0.97244-0.006-0.33301-0.0237-0.74181-0.0391-0.90823-0.0154-0.1666-0.0411-0.40603-0.0571-0.53209-0.016-0.12624-0.0525-0.3697-0.0813-0.54127-0.0288-0.17155-0.0816-0.44824-0.11761-0.61465-0.0358-0.1666-0.10715-0.45963-0.15834-0.65136-0.0512-0.19173-0.14954-0.51797-0.21834-0.72474-0.069-0.20697-0.1811-0.51649-0.24917-0.68805-0.0681-0.17156-0.19706-0.47266-0.2866-0.66915-0.0893-0.1965-0.24219-0.50602-0.33924-0.68805-0.0972-0.18201-0.251-0.45467-0.34181-0.60604-0.0908-0.15137-0.25338-0.40732-0.36089-0.56879-0.1077-0.16146-0.25669-0.37613-0.33099-0.47705-0.0745-0.10091-0.21375-0.28256-0.3099-0.40365-0.096-0.1211-0.24513-0.30256-0.33155-0.4033-0.0866-0.10072-0.25705-0.29063-0.37907-0.422-0.12201-0.13137-0.34-0.353-0.48421-0.49246-0.1444-0.13963-0.37485-0.35191-0.51209-0.4719-0.13743-0.11981-0.37356-0.3154-0.52493-0.43431-0.15156-0.11908-0.38676-0.29577-0.52292-0.39283-0.13633-0.0973-0.3633-0.25082-0.50457-0.34165-0.14128-0.0906-0.38072-0.23761-0.53209-0.32641-0.15137-0.089-0.45686-0.25376-0.67888-0.3664-0.22201-0.11247-0.49447-0.2444-0.60548-0.29284-0.11101-0.0484-0.33172-0.14036-0.49045-0.20421-0.15871-0.064-0.42164-0.16201-0.5842-0.21779-0.16275-0.056-0.42091-0.13834-0.57374-0.1833-0.15302-0.0448-0.41025-0.1143-0.57172-0.15448-0.16146-0.0402-0.39669-0.094-0.52292-0.11945-0.12605-0.0255-0.3532-0.067-0.50457-0.0921-0.15137-0.0249-0.37834-0.0582-0.50457-0.0736-0.12605-0.0154-0.31595-0.0367-0.422-0.0472-0.10587-0.0103-0.3288-0.0272-0.4954-0.0371-0.16642-0.01-0.53797-0.0171-0.82566-0.0156zm0.211 2.0634c0.25229 0.004 0.57024 0.0154 0.7064 0.0259 0.13633 0.0104 0.38402 0.036 0.55044 0.0565 0.1666 0.0206 0.4556 0.0653 0.64218 0.0994 0.18678 0.0341 0.50879 0.1044 0.71557 0.15615 0.20697 0.0519 0.57024 0.15871 0.80731 0.2376 0.23724 0.0789 0.56328 0.19816 0.72475 0.26513 0.16146 0.067 0.48348 0.21578 0.71557 0.33063 0.2321 0.11467 0.53761 0.2765 0.67888 0.35944 0.14128 0.0829 0.38494 0.23485 0.54126 0.33778 0.15651 0.10294 0.4 0.27375 0.54127 0.37964 0.14128 0.10586 0.35594 0.27485 0.47705 0.37577 0.12109 0.10091 0.32347 0.27889 0.44952 0.39557 0.12624 0.11651 0.32036 0.30604 0.43154 0.42091 0.1112 0.11486 0.26825 0.28311 0.34881 0.37392 0.0805 0.0908 0.21743 0.25174 0.30422 0.35779 0.0866 0.10587 0.24035 0.30403 0.34145 0.44035 0.10128 0.13633 0.26237 0.36733 0.35815 0.51375 0.096 0.14623 0.24182 0.38164 0.32457 0.52292 0.0826 0.14127 0.22715 0.40952 0.32146 0.5963 0.0941 0.18679 0.22146 0.45577 0.28293 0.59816 0.0615 0.1422 0.15302 0.36716 0.20311 0.49999 0.0503 0.13265 0.13357 0.37134 0.18531 0.53024 0.0516 0.15889 0.13871 0.46474 0.19357 0.6796 0.055 0.21504 0.12807 0.54529 0.16257 0.73392 0.0343 0.1888 0.0791 0.47943 0.0994 0.64604 0.0204 0.16642 0.0473 0.42659 0.06 0.57796 0.0127 0.15138 0.0226 0.53523 0.022 0.85319-0.00066 0.38511-0.0112 0.69115-0.0316 0.9174-0.0169 0.1866-0.051 0.47978-0.0756 0.65135-0.0248 0.17155-0.0706 0.43979-0.10183 0.59631-0.0314 0.15633-0.0928 0.42474-0.13651 0.59631-0.0437 0.17155-0.11761 0.43448-0.1644 0.5842-0.0466 0.14972-0.1266 0.38495-0.17779 0.52292-0.0512 0.13779-0.14311 0.37026-0.20458 0.51668-0.0613 0.14623-0.20036 0.44345-0.30898 0.66053-0.10881 0.21687-0.27889 0.53064-0.37835 0.69722-0.0993 0.16642-0.25668 0.41613-0.34953 0.55483-0.093 0.13853-0.25485 0.36551-0.35944 0.50457-0.10477 0.1389-0.27705 0.35557-0.38293 0.48183-0.10587 0.12605-0.30292 0.3466-0.43798 0.48972-0.13485 0.1433-0.33613 0.34568-0.44731 0.44953-0.11101 0.10403-0.28861 0.26403-0.39448 0.35557-0.10587 0.0916-0.27504 0.23211-0.37614 0.31229-0.10109 0.0802-0.28274 0.2165-0.40365 0.30311-0.12092 0.0864-0.28183 0.19852-0.35759 0.24898-0.0756 0.0506-0.26146 0.16715-0.41283 0.25889-0.15137 0.0919-0.31559 0.20678-0.36475 0.25522-0.0494 0.0484-0.11798 0.13027-0.15247 0.18201-0.0345 0.0516-0.0849 0.15486-0.11211 0.22935l-0.0495 0.13541-0.0103 2.1742-0.0103 2.1742-0.0413 0.18348c-0.0226 0.10091-0.0701 0.27008-0.10532 0.37613-0.0352 0.10587-0.10458 0.27522-0.1543 0.37613-0.0495 0.10092-0.13688 0.25357-0.19412 0.33944-0.0571 0.0857-0.15669 0.21945-0.22146 0.29706-0.0646 0.0776-0.17614 0.1954-0.24789 0.26182-0.0716 0.0662-0.18898 0.16458-0.26072 0.21834-0.0717 0.0538-0.2022 0.14073-0.28972 0.19321-0.0875 0.0525-0.23265 0.12715-0.32237 0.16605-0.0895 0.0389-0.23027 0.0921-0.31265 0.11797-0.0824 0.026-0.23467 0.0662-0.33835 0.0892l-0.18843 0.0417h-4.9173l-0.19761-0.0417c-0.10862-0.0229-0.28531-0.0706-0.39247-0.10569-0.10733-0.0352-0.28402-0.10843-0.39283-0.16274-0.10862-0.0543-0.26219-0.1422-0.34128-0.19504-0.0791-0.053-0.20715-0.14917-0.28476-0.21376-0.0776-0.0644-0.19541-0.17596-0.26183-0.2477-0.0662-0.0716-0.16458-0.18898-0.21834-0.26072-0.0538-0.0717-0.14073-0.2022-0.19321-0.28972-0.0525-0.0875-0.12715-0.23265-0.16605-0.32237-0.0389-0.0895-0.0919-0.23027-0.11797-0.31247-0.0261-0.0822-0.0655-0.23027-0.0879-0.32898l-0.0407-0.17962-0.0103-2.1742-0.0103-2.1742-0.0495-0.13541c-0.0272-0.0745-0.0774-0.17779-0.11174-0.22935-0.0343-0.0517-0.10257-0.13339-0.15156-0.18183-0.049-0.0482-0.2132-0.16311-0.36511-0.25503-0.15192-0.0921-0.35046-0.21706-0.44128-0.27797-0.0908-0.0607-0.27246-0.18862-0.40365-0.28422-0.13119-0.0954-0.32513-0.24421-0.43118-0.33046-0.10587-0.0862-0.25852-0.21504-0.33888-0.28623-0.0804-0.0712-0.23724-0.21467-0.34861-0.31852-0.11137-0.10403-0.30861-0.30219-0.4385-0.44035-0.12991-0.13835-0.32274-0.35469-0.42861-0.48071-0.10605-0.12624-0.27833-0.34294-0.38309-0.48184-0.10459-0.13907-0.26348-0.36201-0.35284-0.49539-0.0893-0.13357-0.20806-0.31724-0.26384-0.40805-0.056-0.0908-0.15523-0.26017-0.22091-0.37613-0.0655-0.11615-0.18624-0.34512-0.26825-0.50916-0.082-0.16403-0.19963-0.41577-0.26109-0.55961-0.0615-0.14385-0.15559-0.37706-0.20899-0.51833-0.0534-0.14128-0.13559-0.3767-0.18256-0.52292-0.0471-0.14642-0.12605-0.42293-0.17541-0.61466-0.0494-0.19174-0.11467-0.47338-0.14513-0.62568-0.0305-0.15247-0.076-0.42091-0.10128-0.59631-0.0253-0.17559-0.0598-0.4721-0.0769-0.65868-0.0207-0.22862-0.031-0.52823-0.0316-0.9174-0.00037-0.31797 0.01-0.70181 0.0218-0.85318 0.0125-0.15137 0.0395-0.41154 0.06-0.57796 0.0205-0.1666 0.0651-0.45557 0.0993-0.64218 0.0341-0.18679 0.10367-0.5053 0.15449-0.70785 0.0508-0.20275 0.14256-0.52328 0.20385-0.71264 0.0613-0.18917 0.15687-0.46107 0.21247-0.60403 0.0556-0.14293 0.14293-0.35485 0.19393-0.47081 0.0512-0.11596 0.16605-0.35706 0.25523-0.53559 0.0892-0.17853 0.23375-0.44695 0.32109-0.59631 0.0873-0.14954 0.24292-0.3998 0.34587-0.55612 0.10275-0.15651 0.27357-0.39999 0.37943-0.54126 0.10587-0.14128 0.27486-0.35594 0.37577-0.47705 0.10092-0.1211 0.27871-0.32348 0.39505-0.44953 0.11632-0.12623 0.31797-0.33171 0.44843-0.45685 0.13028-0.12532 0.3567-0.33063 0.50292-0.45649 0.14642-0.12605 0.39558-0.32659 0.55411-0.44586 0.15834-0.11926 0.4185-0.30293 0.57796-0.40824 0.15944-0.10532 0.4121-0.26275 0.56163-0.3499 0.14935-0.0873 0.40933-0.22752 0.57796-0.31173 0.16843-0.0844 0.41355-0.20073 0.54476-0.25871 0.13119-0.0582 0.35026-0.14899 0.48695-0.2022 0.13669-0.0532 0.39263-0.14348 0.56879-0.20091 0.17614-0.0572 0.42768-0.13229 0.55889-0.1666 0.13118-0.0345 0.34587-0.0868 0.47704-0.11614 0.13119-0.0295 0.35835-0.075 0.50457-0.10128 0.14642-0.0262 0.39412-0.0637 0.55044-0.0831 0.15651-0.0196 0.4165-0.0446 0.57797-0.0556 0.16146-0.0112 0.34732-0.0231 0.41283-0.0268 0.0657-0.004 0.32567-0.003 0.57796 0.00036zm-22.869 10.32c-1.8686 0.00093-2.2273 0.005-2.3126 0.0277-0.0554 0.0145-0.15449 0.0532-0.22018 0.0859-0.0765 0.038-0.16531 0.1055-0.2477 0.18788-0.0826 0.0826-0.14972 0.171-0.1877 0.2477-0.0327 0.0655-0.0719 0.16844-0.0872 0.22862-0.0154 0.0602-0.0279 0.17192-0.0279 0.24843 0 0.0765 0.0125 0.18825 0.0279 0.24843 0.0152 0.0602 0.0545 0.16293 0.0872 0.22862 0.038 0.0767 0.10514 0.16513 0.1877 0.24769 0.0826 0.0826 0.17101 0.14973 0.2477 0.18771 0.0657 0.0327 0.16844 0.0719 0.22862 0.0872 0.0949 0.0242 0.40293 0.0279 2.3126 0.0279 1.9096 0 2.2177-0.004 2.3126-0.0279 0.0602-0.0152 0.16311-0.0545 0.22861-0.0872 0.0767-0.038 0.16514-0.10514 0.2477-0.18771 0.0826-0.0826 0.14972-0.171 0.1877-0.24769 0.0327-0.0657 0.0719-0.16844 0.0872-0.22862 0.0154-0.0602 0.0279-0.17192 0.0279-0.24843 0-0.0765-0.0125-0.18825-0.0279-0.24843-0.0152-0.0602-0.0545-0.16312-0.0872-0.22862-0.0379-0.0766-0.10527-0.165-0.18777-0.2475s-0.17094-0.14982-0.2475-0.18777c-0.0655-0.0327-0.16843-0.0719-0.22861-0.0872-0.0949-0.0242-0.40109-0.0277-2.321-0.0266zm45.411 0c-1.8686 0.00093-2.2273 0.005-2.3126 0.0277-0.0554 0.0145-0.15449 0.0532-0.22018 0.0859-0.0765 0.038-0.16531 0.1055-0.2477 0.18788-0.0826 0.0826-0.14972 0.171-0.1877 0.2477-0.0327 0.0655-0.0719 0.16844-0.0872 0.22862-0.0154 0.0602-0.0279 0.17192-0.0279 0.24843 0 0.0765 0.0125 0.18825 0.0279 0.24843 0.0152 0.0602 0.0545 0.16293 0.0872 0.22862 0.038 0.0767 0.10514 0.16513 0.1877 0.24769 0.0826 0.0826 0.17101 0.14973 0.2477 0.18771 0.0657 0.0327 0.16844 0.0719 0.22862 0.0872 0.0949 0.0242 0.40293 0.0279 2.3126 0.0279 1.9096 0 2.2177-0.004 2.3126-0.0279 0.0602-0.0152 0.16311-0.0545 0.22861-0.0872 0.0767-0.038 0.16514-0.10514 0.2477-0.18771 0.0826-0.0826 0.14972-0.171 0.1877-0.24769 0.0327-0.0657 0.0719-0.16844 0.0872-0.22862 0.0154-0.0602 0.0279-0.17192 0.0279-0.24843 0-0.0765-0.0125-0.18825-0.0279-0.24843-0.0152-0.0602-0.0545-0.16311-0.0872-0.22862-0.0378-0.0761-0.10586-0.16623-0.18825-0.24917-0.0857-0.0862-0.1688-0.14935-0.2477-0.1877-0.0653-0.0317-0.16788-0.0703-0.22806-0.0857-0.095-0.0242-0.39851-0.0277-2.321-0.0266zm-22.707 24.77c-1.8124 0.00099-2.2203 0.006-2.3069 0.0266-0.0578 0.0141-0.14861 0.0473-0.20182 0.0741-0.0532 0.0268-0.13248 0.0776-0.17633 0.11321-0.0438 0.0356-0.10036 0.0862-0.12587 0.11247-0.0253 0.0264-0.0771 0.0947-0.11486 0.15192-0.0378 0.0572-0.0883 0.16458-0.11211 0.23852-0.0334 0.10294-0.0437 0.17541-0.0437 0.3088s0.0103 0.20586 0.0437 0.3088c0.0239 0.0739 0.0743 0.18128 0.11211 0.23852 0.0378 0.0572 0.0895 0.1255 0.11486 0.15192 0.0255 0.0262 0.082 0.0769 0.12587 0.11247 0.0439 0.0356 0.12275 0.0864 0.17559 0.11284 0.0528 0.0264 0.1477 0.0604 0.211 0.0752 0.0982 0.0231 0.43722 0.0272 2.3076 0.0272 1.8898 0 2.2087-0.004 2.31-0.0277 0.0646-0.0152 0.17265-0.0567 0.24017-0.0923 0.0677-0.0354 0.16697-0.10752 0.22073-0.15999 0.0538-0.0527 0.12807-0.14238 0.16531-0.19963 0.0371-0.0572 0.087-0.16458 0.11082-0.23852 0.0334-0.10294 0.0437-0.17541 0.0437-0.3088s-0.0103-0.20586-0.0437-0.3088c-0.0239-0.0739-0.0738-0.18128-0.11082-0.23852-0.0372-0.0573-0.11155-0.14697-0.16531-0.19963-0.0538-0.0525-0.15302-0.12458-0.22073-0.15999-0.0675-0.0356-0.17559-0.0771-0.24017-0.0923-0.10147-0.0239-0.41798-0.0275-2.3192-0.0264z"/>
 </g>

</g>
</svg>